<?xml version="1.0" encoding="UTF-8"?>
<!DOCTYPE svg PUBLIC "-//W3C//DTD SVG 1.1//EN" "http://www.w3.org/Graphics/SVG/1.1/DTD/svg11.dtd">
<!-- Creator: CorelDRAW 2019 (64-Bit) -->
<svg xmlns="http://www.w3.org/2000/svg" xml:space="preserve" width="500mm" height="500mm" version="1.1" style="shape-rendering:geometricPrecision; text-rendering:geometricPrecision; image-rendering:optimizeQuality; fill-rule:evenodd; clip-rule:evenodd"
viewBox="0 0 50000 50000"
 xmlns:xlink="http://www.w3.org/1999/xlink">
 <defs>
  <style type="text/css">
   <![CDATA[
    .str0 {stroke:#FEFEFE;stroke-width:20;stroke-miterlimit:22.9256}
    .fil0 {fill:#FEFEFE}
   ]]>
  </style>
 </defs>
 <g id="Слой_x0020_1">
  <metadata id="CorelCorpID_0Corel-Layer"/>
  <path class="fil0 str0" d="M24997.93 2746.6c-12291.36,0 -22255.47,9964.11 -22255.47,22255.47 0,12291.36 9964.11,22255.47 22255.47,22255.47 12291.36,0 22255.47,-9964.11 22255.47,-22255.47 0,-12291.36 -9964.11,-22255.47 -22255.47,-22255.47zm-1260.15 2632.89c1172.98,-8.82 2972.15,79.37 4427.36,414.51 1455.21,335.14 2566.46,917.23 3289.65,1631.61 723.2,714.37 1058.33,1561.03 1737.43,2398.88 679.1,837.85 1702.15,1666.87 2910.41,2637.01 1208.27,970.14 2601.75,2081.39 3580.7,3272.02 978.96,1190.62 1543.41,2460.63 1966.74,3836.47 423.33,1375.83 705.56,2857.49 696.74,4780.13 -8.82,1922.64 -308.68,4286.25 -326.32,5997.22 -17.64,1710.97 246.95,2769.31 105.83,3854.1 -141.11,1084.79 -687.91,2196.05 -1949.1,3430.77 -1261.18,1234.72 -3236.73,2592.92 -4921.25,3695.35 -1684.51,1102.43 -3077.99,1949.09 -4788.96,2522.35 -1710.97,573.27 -3739.45,873.13 -5459.24,864.31 -1719.79,-8.82 -3130.9,-326.32 -4639.02,-1084.79 -1508.13,-758.47 -3113.27,-1957.92 -3792.37,-2804.59 -679.1,-846.66 -432.15,-1340.55 -784.93,-1860.9 -352.78,-520.34 -1305.28,-1067.15 -2293.05,-1666.87 -987.78,-599.72 -2010.84,-1252.36 -2557.64,-2460.63 -546.81,-1208.26 -617.36,-2972.15 -917.22,-4806.6 -299.87,-1834.44 -829.03,-3739.44 -1578.68,-5556.24 -749.66,-1816.81 -1719.8,-3545.43 -1949.1,-5044.73 -229.31,-1499.31 282.21,-2769.31 899.58,-3880.56 617.36,-1111.25 1340.55,-2063.75 2284.24,-3016.25 943.68,-952.5 2107.84,-1905 2972.15,-2628.19 864.3,-723.2 1428.75,-1217.09 2134.31,-1508.13 705.55,-291.04 1552.21,-379.24 2689.92,-811.39 1137.71,-432.15 2566.47,-1208.27 3554.25,-1649.24 987.77,-440.97 1534.58,-546.81 2707.57,-555.62z"/>
  <polygon class="fil0 str0" points="18806.47,17852.8 18806.47,32151.32 31189.37,25002.07 "/>
 </g>
</svg>
