<?xml version="1.0" encoding="UTF-8"?>
<!DOCTYPE svg PUBLIC "-//W3C//DTD SVG 1.1//EN" "http://www.w3.org/Graphics/SVG/1.1/DTD/svg11.dtd">
<!-- Creator: CorelDRAW 2019 (64-Bit) -->
<svg xmlns="http://www.w3.org/2000/svg" xml:space="preserve" width="500mm" height="500mm" version="1.1" style="shape-rendering:geometricPrecision; text-rendering:geometricPrecision; image-rendering:optimizeQuality; fill-rule:evenodd; clip-rule:evenodd"
viewBox="0 0 50000 50000"
 xmlns:xlink="http://www.w3.org/1999/xlink">
 <defs>
  <style type="text/css">
   <![CDATA[
    .fil0 {fill:black}
    .fil1 {fill:#F9F9F9}
   ]]>
  </style>
 </defs>
 <g id="Слой_x0020_1">
  <metadata id="CorelCorpID_0Corel-Layer"/>
  <g id="_1687722461840">
   <path class="fil0" d="M33710.15 14419.64c1139.6,-3939.64 -4545.03,-5482.16 -5789.73,-1918.37 -1399.97,4008.5 4665.93,5803.48 5789.73,1918.37zm-5325.71 33629.11c-4962.73,-12.24 -11644.46,-3847.17 -14880.72,-7597.49 -13173.43,-15266.04 -2502.56,-38423.45 17232.54,-38495.82 6018.5,-22.05 11284.9,4857.63 11561.46,10937.38 294.22,6467.31 -4402.68,11533.38 -10261.76,12122.34 -3938.27,395.9 -5987.28,505.67 -8526.46,2681.68 -1763.05,1510.92 -3575.44,3893.99 -4056.29,7118.84 -870.31,5836.35 2582.29,11088.32 7917.41,12758.56l1013.82 474.51z"/>
   <path class="fil1" d="M33710.15 14419.64c-1123.8,3885.11 -7189.7,2090.13 -5789.73,-1918.37 1244.7,-3563.79 6929.33,-2021.27 5789.73,1918.37z"/>
   <path class="fil0" d="M33701.23 37461.47c-1156.48,3978.21 -7130.5,2006.39 -5774.03,-1903.2 1237.57,-3566.96 6908.6,-1999.91 5774.03,1903.2z"/>
  </g>
 </g>
</svg>
